<?xml version="1.0" encoding="UTF-8"?>
<!DOCTYPE svg
PUBLIC "-//W3C//DTD SVG 1.1//EN"
       "http://www.w3.org/Graphics/SVG/1.1/DTD/svg11.dtd">
<svg version="1.1" xmlns="http://www.w3.org/2000/svg" xmlns:xlink="http://www.w3.org/1999/xlink" width="39.3281" height="41.5781">
 <g>
  <rect height="41.5781" opacity="0" width="39.3281" x="0" y="0"/>
  <path d="M19.6562 41.5781C20.2656 41.5781 21.0469 41.25 21.6719 41.0312L29.7969 38.0469C30.4062 37.8281 30.6406 37.2812 30.6406 36.9219C30.6406 36.1719 30.1094 35.5312 29.2812 35.5312C28.8906 35.5312 28.3281 35.75 27.9688 35.8906L18.7031 39.3438L20.6406 39.3438L11.3594 35.8906C11 35.75 10.4688 35.5312 10.0625 35.5312C9.28125 35.5312 8.70312 36.1406 8.70312 36.9219C8.70312 37.2812 8.92188 37.8281 9.54688 38.0469L17.6562 41.0312C18.3125 41.2656 19.0625 41.5781 19.6562 41.5781ZM4.90625 33.125L34.4219 33.125C37.6719 33.125 39.3281 31.5 39.3281 28.2812L39.3281 13.2656C39.3281 10.0625 37.6719 8.4375 34.4219 8.4375L4.90625 8.4375C1.625 8.4375 0 10.0469 0 13.2656L0 28.2812C0 31.5 1.625 33.125 4.90625 33.125ZM4.9375 30.6094C3.375 30.6094 2.51562 29.7656 2.51562 28.1406L2.51562 13.4062C2.51562 11.7812 3.375 10.9531 4.9375 10.9531L34.375 10.9531C35.9219 10.9531 36.8125 11.7812 36.8125 13.4062L36.8125 28.1406C36.8125 29.7656 35.9219 30.6094 34.375 30.6094ZM6.34375 17.1406L7.78125 17.1406C8.21875 17.1406 8.48438 16.875 8.48438 16.4531L8.48438 15.0156C8.48438 14.5781 8.21875 14.3125 7.78125 14.3125L6.34375 14.3125C5.92188 14.3125 5.65625 14.5781 5.65625 15.0156L5.65625 16.4531C5.65625 16.875 5.92188 17.1406 6.34375 17.1406ZM11.375 17.1406L12.8125 17.1406C13.2344 17.1406 13.5 16.875 13.5 16.4531L13.5 15.0156C13.5 14.5781 13.2344 14.3125 12.8125 14.3125L11.375 14.3125C10.9375 14.3125 10.6719 14.5781 10.6719 15.0156L10.6719 16.4531C10.6719 16.875 10.9375 17.1406 11.375 17.1406ZM16.4062 17.1406L17.8281 17.1406C18.2656 17.1406 18.5312 16.875 18.5312 16.4531L18.5312 15.0156C18.5312 14.5781 18.2656 14.3125 17.8281 14.3125L16.4062 14.3125C15.9688 14.3125 15.7031 14.5781 15.7031 15.0156L15.7031 16.4531C15.7031 16.875 15.9688 17.1406 16.4062 17.1406ZM21.4219 17.1406L22.8594 17.1406C23.2969 17.1406 23.5625 16.875 23.5625 16.4531L23.5625 15.0156C23.5625 14.5781 23.2969 14.3125 22.8594 14.3125L21.4219 14.3125C21 14.3125 20.7344 14.5781 20.7344 15.0156L20.7344 16.4531C20.7344 16.875 21 17.1406 21.4219 17.1406ZM26.4531 17.1406L27.8906 17.1406C28.3125 17.1406 28.5781 16.875 28.5781 16.4531L28.5781 15.0156C28.5781 14.5781 28.3125 14.3125 27.8906 14.3125L26.4531 14.3125C26.0156 14.3125 25.75 14.5781 25.75 15.0156L25.75 16.4531C25.75 16.875 26.0156 17.1406 26.4531 17.1406ZM31.4844 17.1406L32.9062 17.1406C33.3438 17.1406 33.6094 16.875 33.6094 16.4531L33.6094 15.0156C33.6094 14.5781 33.3438 14.3125 32.9062 14.3125L31.4844 14.3125C31.0469 14.3125 30.7812 14.5781 30.7812 15.0156L30.7812 16.4531C30.7812 16.875 31.0469 17.1406 31.4844 17.1406ZM6.34375 22.1719L7.78125 22.1719C8.21875 22.1719 8.48438 21.9062 8.48438 21.4688L8.48438 20.0469C8.48438 19.6094 8.21875 19.3438 7.78125 19.3438L6.34375 19.3438C5.92188 19.3438 5.65625 19.6094 5.65625 20.0469L5.65625 21.4688C5.65625 21.9062 5.92188 22.1719 6.34375 22.1719ZM11.375 22.1719L12.8125 22.1719C13.2344 22.1719 13.5 21.9062 13.5 21.4688L13.5 20.0469C13.5 19.6094 13.2344 19.3438 12.8125 19.3438L11.375 19.3438C10.9375 19.3438 10.6719 19.6094 10.6719 20.0469L10.6719 21.4688C10.6719 21.9062 10.9375 22.1719 11.375 22.1719ZM16.4062 22.1719L17.8281 22.1719C18.2656 22.1719 18.5312 21.9062 18.5312 21.4688L18.5312 20.0469C18.5312 19.6094 18.2656 19.3438 17.8281 19.3438L16.4062 19.3438C15.9688 19.3438 15.7031 19.6094 15.7031 20.0469L15.7031 21.4688C15.7031 21.9062 15.9688 22.1719 16.4062 22.1719ZM21.4219 22.1719L22.8594 22.1719C23.2969 22.1719 23.5625 21.9062 23.5625 21.4688L23.5625 20.0469C23.5625 19.6094 23.2969 19.3438 22.8594 19.3438L21.4219 19.3438C21 19.3438 20.7344 19.6094 20.7344 20.0469L20.7344 21.4688C20.7344 21.9062 21 22.1719 21.4219 22.1719ZM26.4531 22.1719L27.8906 22.1719C28.3125 22.1719 28.5781 21.9062 28.5781 21.4688L28.5781 20.0469C28.5781 19.6094 28.3125 19.3438 27.8906 19.3438L26.4531 19.3438C26.0156 19.3438 25.75 19.6094 25.75 20.0469L25.75 21.4688C25.75 21.9062 26.0156 22.1719 26.4531 22.1719ZM31.4844 22.1719L32.9062 22.1719C33.3438 22.1719 33.6094 21.9062 33.6094 21.4688L33.6094 20.0469C33.6094 19.6094 33.3438 19.3438 32.9062 19.3438L31.4844 19.3438C31.0469 19.3438 30.7812 19.6094 30.7812 20.0469L30.7812 21.4688C30.7812 21.9062 31.0469 22.1719 31.4844 22.1719ZM6.34375 27.2031L7.78125 27.2031C8.21875 27.2031 8.48438 26.9375 8.48438 26.5L8.48438 25.0625C8.48438 24.6406 8.21875 24.375 7.78125 24.375L6.34375 24.375C5.92188 24.375 5.65625 24.6406 5.65625 25.0625L5.65625 26.5C5.65625 26.9375 5.92188 27.2031 6.34375 27.2031ZM11.5312 27.2031L27.7344 27.2031C28.2656 27.2031 28.5781 26.8906 28.5781 26.3438L28.5781 25.2188C28.5781 24.6875 28.2656 24.375 27.7344 24.375L11.5312 24.375C10.9844 24.375 10.6719 24.6875 10.6719 25.2188L10.6719 26.3438C10.6719 26.8906 10.9844 27.2031 11.5312 27.2031ZM31.4844 27.2031L32.9062 27.2031C33.3438 27.2031 33.6094 26.9375 33.6094 26.5L33.6094 25.0625C33.6094 24.6406 33.3438 24.375 32.9062 24.375L31.4844 24.375C31.0469 24.375 30.7812 24.6406 30.7812 25.0625L30.7812 26.5C30.7812 26.9375 31.0469 27.2031 31.4844 27.2031Z" fill="#ffffff" fill-opacity="0.85"/>
 </g>
</svg>
